<?xml version="1.0" encoding="UTF-8"?>
<svg id="Capa_1" xmlns="http://www.w3.org/2000/svg" version="1.1" viewBox="0 0 127.5 31.2">
  <!-- Generator: Adobe Illustrator 30.3.0, SVG Export Plug-In . SVG Version: 2.1.3 Build 182)  -->
  <defs>
    <style>
      .st0 {
        fill: #fff;
      }

      .st1 {
        fill: #9880d6;
      }

      .st2 {
        isolation: isolate;
      }
    </style>
  </defs>
  <path class="st1" d="M16,0h95.6c8.7,0,15.7,7,15.7,15.6h0c0,8.6-7,15.6-15.7,15.6H16C7.3,31.3.3,24.3.3,15.6H.3C.3,7,7.3,0,16,0Z"/>
  <path class="st0" d="M19.8,11.8l2.8-2.8,14.1,14.1-2.8,2.8s-14.1-14.1-14.1-14.1ZM24.1,7.6l2.8-2.8,5.7,5.7-2.8,2.8s-5.7-5.7-5.7-5.7ZM15.6,16.1l2.8-2.8,5.7,5.7-2.8,2.8s-5.7-5.7-5.7-5.7ZM15.6,24.8h12v2h-12v-2Z"/>
  <g class="st2">
    <g class="st2">
      <path class="st0" d="M48.7,20v-10.4h-4v-1.8h10.2v1.8h-4v10.4h-2.2Z"/>
      <path class="st0" d="M60.4,11.3v1.9c-.4-.1-.8-.2-1.1-.2-.7,0-1.3.2-1.7.6s-.6,1-.6,1.7v4.7h-2.1v-6.2c0-.9,0-1.7-.1-2.4h2l.2,1.5c.2-.6.6-1,1-1.3.5-.3,1-.4,1.6-.4s.6,0,.9.1Z"/>
      <path class="st0" d="M61.5,7.4h2.4v2.1h-2.4v-2.1ZM61.6,20v-8.6h2.1v8.6h-2.1Z"/>
      <path class="st0" d="M73,11.7c.6.4,1,.9,1.3,1.6.3.7.5,1.5.5,2.3s-.2,1.7-.5,2.4-.8,1.2-1.4,1.6c-.6.4-1.2.6-2,.6s-1.2-.1-1.7-.4c-.5-.3-.9-.7-1.1-1.1v1.4h-2.1V7.4h2.1v5.2c.3-.5.6-.9,1.1-1.1.5-.3,1-.4,1.7-.4s1.4.2,2,.6ZM72.1,17.7c.4-.5.6-1.2.6-2.1s-.2-1.6-.6-2.1c-.4-.5-.9-.7-1.7-.7s-1.3.2-1.7.7c-.4.5-.6,1.2-.6,2.1s.2,1.6.6,2.1c.4.5.9.7,1.7.7s1.3-.3,1.6-.8Z"/>
      <path class="st0" d="M84.5,11.4v8.6h-2.1v-1.3c-.3.5-.6.8-1.1,1.1-.5.2-1,.4-1.6.4-2.1,0-3.2-1.2-3.2-3.6v-5.2h2.1v5.2c0,.6.1,1.1.4,1.4.3.3.7.4,1.2.4s1.1-.2,1.5-.6c.4-.4.6-1,.6-1.6v-4.8h2.2Z"/>
      <path class="st0" d="M94.9,14.7v5.3h-2.1v-5.2c0-.7-.1-1.2-.4-1.5s-.7-.5-1.2-.5-1.2.2-1.6.6c-.4.4-.6,1-.6,1.7v4.9h-2.1v-6.2c0-.9,0-1.7-.1-2.4h2l.2,1.4c.3-.5.7-.9,1.2-1.2.5-.3,1.1-.4,1.7-.4,2.1,0,3.1,1.2,3.1,3.6Z"/>
      <path class="st0" d="M105.4,11.4v8.6h-2.1v-1.4c-.3.5-.6.9-1.1,1.1-.5.3-1,.4-1.7.4s-1.4-.2-2-.5c-.6-.4-1-.9-1.4-1.6-.3-.7-.5-1.5-.5-2.3s.2-1.7.5-2.4c.3-.7.8-1.2,1.4-1.6s1.2-.6,2-.6,1.2.1,1.7.4c.5.3.9.6,1.1,1.1v-1.3h2.1ZM102.7,17.7c.4-.5.6-1.2.6-2.1s-.2-1.6-.6-2.1c-.4-.5-.9-.7-1.7-.7s-1.3.3-1.6.8c-.4.5-.6,1.2-.6,2.1s.2,1.6.6,2.1c.4.5.9.7,1.7.7s1.3-.2,1.6-.7Z"/>
      <path class="st0" d="M107.8,20V7.4h2.1v12.6h-2.1Z"/>
    </g>
  </g>
</svg>